<?xml version="1.0" encoding="UTF-8" standalone="no"?>
<!-- Generator: Adobe Illustrator 16.0.2, SVG Export Plug-In . SVG Version: 6.00 Build 0)  -->

<svg
   xmlns:dc="http://purl.org/dc/elements/1.1/"
   xmlns:cc="http://creativecommons.org/ns#"
   xmlns:rdf="http://www.w3.org/1999/02/22-rdf-syntax-ns#"
   xmlns:svg="http://www.w3.org/2000/svg"
   xmlns="http://www.w3.org/2000/svg"
   xmlns:sodipodi="http://sodipodi.sourceforge.net/DTD/sodipodi-0.dtd"
   xmlns:inkscape="http://www.inkscape.org/namespaces/inkscape"
   version="1.1"
   id="Ebene_1"
   x="0px"
   y="0px"
   width="471.98199"
   height="473.556"
   viewBox="-206.827 -207.477 471.98199 473.556"
   enable-background="new -206.827 -207.477 475.531 477.108"
   xml:space="preserve"
   inkscape:version="0.48.4 r9939"
   sodipodi:docname="Flag_of_Canton_of_Aargau.svg"><metadata
   id="metadata31"><rdf:RDF><cc:Work
       rdf:about=""><dc:format>image/svg+xml</dc:format><dc:type
         rdf:resource="http://purl.org/dc/dcmitype/StillImage" /></cc:Work></rdf:RDF></metadata><defs
   id="defs29">
	
	
	
	
	
	
	
	
	

		
		
			
	</defs><sodipodi:namedview
   pagecolor="#ffffff"
   bordercolor="#666666"
   borderopacity="1"
   objecttolerance="10"
   gridtolerance="10"
   guidetolerance="10"
   inkscape:pageopacity="0"
   inkscape:pageshadow="2"
   inkscape:window-width="1366"
   inkscape:window-height="706"
   id="namedview27"
   showgrid="false"
   fit-margin-top="0"
   fit-margin-left="0"
   fit-margin-right="0"
   fit-margin-bottom="0"
   inkscape:zoom="0.98929382"
   inkscape:cx="224.02973"
   inkscape:cy="245.36233"
   inkscape:window-x="-8"
   inkscape:window-y="-8"
   inkscape:window-maximized="1"
   inkscape:current-layer="Ebene_1" />
<g
   id="g3789"><rect
     x="-206.827"
     y="-207.47701"
     width="471.979"
     height="473.556"
     id="rect5"
     style="fill:#010202" /><rect
     x="29.157993"
     y="-207.47701"
     width="235.99699"
     height="473.556"
     id="rect7"
     style="fill:#268bcc" /><polygon
     transform="translate(-1.7760072,-1.775996)"
     points="202.07,-4.341 170.414,16.038 181.398,-18.837 152.977,-37.876 188.648,-37.876 202.07,-74.349 215.492,-37.876 251.147,-37.876 222.977,-18.556 233.711,16.038 "
     id="polygon9"
     style="fill:#ffffff" /><polygon
     transform="translate(-1.7760072,-1.775996)"
     points="91.836,-4.341 60.445,16.038 71.164,-18.837 42.742,-37.876 78.43,-37.876 91.836,-74.349 105.258,-37.876 140.93,-37.876 112.773,-18.556 123.492,16.038 "
     id="polygon11"
     style="fill:#ffffff" /><polygon
     transform="translate(-1.7760072,-1.775996)"
     points="147.086,92.213 115.43,112.315 126.148,77.729 98.008,58.417 133.664,58.417 147.086,22.209 160.492,58.674 196.148,58.674 167.742,77.729 178.742,112.588 "
     id="polygon13"
     style="fill:#ffffff" /><path
     d="m 26.356993,8.187004 c -11.457,-2.144 -13.328,-9.918 -30.8870002,-9.918 -20.4019998,0 -17.2969998,10.797 -41.6719998,10.797 -24.375,0 -21.871,-10.797 -42.273,-10.797 -20.406003,0 -18.895003,10.797 -42.359003,10.797 -23.473,0 -21.184,-10.797 -41.586,-10.797 -18.973,0 -19.637,9.047 -33.797,10.328 v -34.395 c 14.16,-1.277 14.824,-10.328 33.797,-10.328 20.402,0 18.113,10.793 41.586,10.793 23.465,0 21.953,-10.793 42.359003,-10.793 20.402,0 17.898,10.793 42.273,10.793 24.375,0 21.27,-10.793 41.6719998,-10.793 17.5590002,0 19.4380002,7.762 30.8870002,9.938 v 34.375 z"
     id="path15"
     inkscape:connector-curvature="0"
     style="fill:#ffffff" /><path
     d="m 26.356993,54.125004 c -11.457,-2.141 -13.328,-9.922 -30.8870002,-9.922 -20.4019998,0 -17.2969998,10.797 -41.6719998,10.797 -24.375,0 -21.871,-10.797 -42.273,-10.797 -20.406003,0 -18.895003,10.797 -42.359003,10.797 -23.473,0 -21.184,-10.797 -41.586,-10.797 -18.973,0 -19.637,9.047 -33.797,10.328 v -34.39 c 14.16,-1.281 14.824,-10.328 33.797,-10.328 20.402,0 18.113,10.801 41.586,10.801 23.465,0 21.953,-10.801 42.359003,-10.801 20.402,0 17.898,10.801 42.273,10.801 24.375,0 21.27,-10.801 41.6719998,-10.801 17.5590002,0 19.4380002,7.766 30.8870002,9.918 v 34.394 l 0,0 z"
     id="path17"
     inkscape:connector-curvature="0"
     style="fill:#ffffff" /><path
     d="m 26.356993,100.062 c -11.457,-2.163996 -13.328,-9.921996 -30.8870002,-9.921996 -20.4019998,0 -17.2969998,10.780996 -41.6719998,10.780996 -24.375,0 -21.871,-10.780996 -42.273,-10.780996 -20.406003,0 -18.895003,10.780996 -42.359003,10.780996 -23.473,0 -21.184,-10.780996 -41.586,-10.780996 -18.973,0 -19.637,9.047 -33.797,10.312996 V 66.062004 c 14.16,-1.266 14.824,-10.313 33.797,-10.313 20.402,0 18.113,10.781 41.586,10.781 23.465,0 21.953,-10.781 42.359003,-10.781 20.402,0 17.898,10.781 42.273,10.781 24.375,0 21.27,-10.781 41.6719998,-10.781 17.5590002,0 19.4380002,7.766 30.8870002,9.922 V 100.062 l 0,0 z"
     id="path19"
     inkscape:connector-curvature="0"
     style="fill:#ffffff" /><path
     style="fill:none;stroke:#010202;stroke-width:3.55200005"
     inkscape:connector-curvature="0"
     id="path23"
     d="m 145.30999,20.433004 13.406,36.473 h 35.656 l -28.406,19.047 11,34.858996 -31.656,-20.374996 -31.656,20.108996 10.719,-34.593996 -28.140997,-19.311 h 35.655997 l 13.422,-36.208 z m -55.249997,-96.558 13.421997,36.465 h 35.672 l -28.156,19.328 10.719,34.594 -31.656997,-20.379 -31.391,20.379 10.719,-34.875 -28.422,-19.039 h 35.688 l 13.406,-36.473 z m 110.233997,0 13.422,36.465 h 35.655 l -28.171,19.328 10.742,34.594 -31.64,-20.379 -31.656,20.379 10.984,-34.875 -28.43,-19.039 h 35.672 l 13.422,-36.473 z" /></g>
</svg>