<?xml version="1.0" encoding="UTF-8" standalone="no"?>
<!-- Generator: Adobe Illustrator 16.0.2, SVG Export Plug-In . SVG Version: 6.00 Build 0)  -->

<svg
   xmlns:dc="http://purl.org/dc/elements/1.1/"
   xmlns:cc="http://creativecommons.org/ns#"
   xmlns:rdf="http://www.w3.org/1999/02/22-rdf-syntax-ns#"
   xmlns:svg="http://www.w3.org/2000/svg"
   xmlns="http://www.w3.org/2000/svg"
   xmlns:sodipodi="http://sodipodi.sourceforge.net/DTD/sodipodi-0.dtd"
   xmlns:inkscape="http://www.inkscape.org/namespaces/inkscape"
   version="1.1"
   id="Ebene_1"
   x="0px"
   y="0px"
   width="472.17499"
   height="472.72699"
   viewBox="-207.132 -206.774 472.175 472.72699"
   enable-background="new -207.132 -206.774 475.735 476.272"
   xml:space="preserve"
   inkscape:version="0.48.4 r9939"
   sodipodi:docname="Flag_of_Canton_of_Basel_Land.svg"><metadata
   id="metadata35"><rdf:RDF><cc:Work
       rdf:about=""><dc:format>image/svg+xml</dc:format><dc:type
         rdf:resource="http://purl.org/dc/dcmitype/StillImage" /></cc:Work></rdf:RDF></metadata><defs
   id="defs33">
	
	
	
	
	
	
	
	
	
	
	

		
		
			
	</defs><sodipodi:namedview
   pagecolor="#ffffff"
   bordercolor="#666666"
   borderopacity="1"
   objecttolerance="10"
   gridtolerance="10"
   guidetolerance="10"
   inkscape:pageopacity="0"
   inkscape:pageshadow="2"
   inkscape:window-width="1366"
   inkscape:window-height="706"
   id="namedview31"
   showgrid="false"
   fit-margin-top="0"
   fit-margin-left="0"
   fit-margin-right="0"
   fit-margin-bottom="0"
   inkscape:zoom="0.99103033"
   inkscape:cx="236.07949"
   inkscape:cy="236.36398"
   inkscape:window-x="-8"
   inkscape:window-y="-8"
   inkscape:window-maximized="1"
   inkscape:current-layer="Ebene_1" />
<rect
   style="fill:#ffffff"
   id="rect5"
   height="472.72699"
   width="472.17499"
   y="-206.774"
   x="-207.132" /><path
   style="fill:#e8423f"
   inkscape:connector-curvature="0"
   id="path7"
   d="m 177.62199,-94.575002 c -0.055,-2.359 -0.25,-4.734 -0.539,-7.093998 -0.891,-6.535 -2.984,-13.535 -6.25,-20.551 4.656,-2.379 7.867,-7.203 7.867,-12.801 0,-7.93 -6.445,-14.367 -14.398,-14.367 -3.641,0 -6.953,1.375 -9.5,3.598 -7.172,-7.719 -15.938,-14.598 -26.172,-19.824 0.922,-1.871 1.43,-3.977 1.43,-6.215 0,-7.93 -6.438,-14.367 -14.375,-14.367 -7.07,0 -12.93,5.102 -14.164,11.824 -10.233996,-1.617 -21.358996,-1.656 -33.327996,0.383 -1.492,-6.336 -7.188,-11.078 -13.984,-11.078 -7.984,0 -14.391,6.422 -14.391,14.367 0,1.641 0.273,3.215 0.766,4.695 -1.031,0.414 -2.063,0.848 -3.125,1.297 -8.66,3.734 -17.484,8.871 -25.879,15.414 -2.6409999,-2.801 -6.3439999,-4.527 -10.5039999,-4.527 -7.941,0 -14.4140001,6.418 -14.4140001,14.344 0,4.039 1.688,7.672 4.3750001,10.273 -7.0900001,8.672 -13.4060001,18.672 -18.5120001,30.015998 -1.809,-0.793 -3.777,-1.226998 -5.855,-1.226998 -8.047,0 -14.617,6.530998 -14.617,14.554998 0,6.902 4.848,12.68 11.289,14.176 -2.535,11.023 -3.977,22.992 -4.098,35.879 h 79.145 c -0.375,-32.762 6.938,-57.008 19.789,-70.479998 14.922,-15.574 36.781,-17.273 54.280996,-9.633 18.406,8.008 26.406,27.151998 19.273,41.729998 -5.539,11.336 -20.977,19.902 -42.897996,18.313 13.452996,16.918 27.866996,23.637 41.124996,23.309 1,6.953 6.969,12.313 14.25,12.313 7.938,0 14.359,-6.422 14.359,-14.359 0,-3.125 -0.984,-6.016 -2.703,-8.375 7.031,-5.922 12.781,-14.055 16.578,-23.391 1.078,0.246 2.195,0.383 3.313,0.383 7.977,0 14.406,-6.426 14.406,-14.344 -0.001,-7.33 -5.477,-13.33 -12.54,-14.236" /><path
   style="fill:none;stroke:#010202;stroke-width:3.54559994"
   inkscape:connector-curvature="0"
   id="path9"
   d="m 177.62199,-94.575002 c -0.055,-2.359 -0.25,-4.734 -0.539,-7.093998 -0.891,-6.535 -2.984,-13.535 -6.25,-20.551 4.656,-2.379 7.867,-7.203 7.867,-12.801 0,-7.93 -6.445,-14.367 -14.398,-14.367 -3.641,0 -6.953,1.375 -9.5,3.598 -7.172,-7.719 -15.938,-14.598 -26.172,-19.824 0.922,-1.871 1.43,-3.977 1.43,-6.215 0,-7.93 -6.438,-14.367 -14.375,-14.367 -7.07,0 -12.93,5.102 -14.164,11.824 -10.233996,-1.617 -21.358996,-1.656 -33.327996,0.383 -1.492,-6.336 -7.188,-11.078 -13.984,-11.078 -7.984,0 -14.391,6.422 -14.391,14.367 0,1.641 0.273,3.215 0.766,4.695 -1.031,0.414 -2.063,0.848 -3.125,1.297 -8.66,3.734 -17.484,8.871 -25.879,15.414 -2.6409999,-2.801 -6.3439999,-4.527 -10.5039999,-4.527 -7.941,0 -14.4140001,6.418 -14.4140001,14.344 0,4.039 1.688,7.672 4.3750001,10.273 -7.0900001,8.672 -13.4060001,18.672 -18.5120001,30.015998 -1.809,-0.793 -3.777,-1.226998 -5.855,-1.226998 -8.047,0 -14.617,6.530998 -14.617,14.554998 0,6.902 4.848,12.68 11.289,14.176 -2.535,11.023 -3.977,22.992 -4.098,35.879 h 79.145 c -0.375,-32.762 6.938,-57.008 19.789,-70.479998 14.922,-15.574 36.781,-17.273 54.280996,-9.633 18.406,8.008 26.406,27.151998 19.273,41.729998 -5.539,11.336 -20.977,19.902 -42.897996,18.313 13.452996,16.918 27.866996,23.637 41.124996,23.309 1,6.953 6.969,12.313 14.25,12.313 7.938,0 14.359,-6.422 14.359,-14.359 0,-3.125 -0.984,-6.016 -2.703,-8.375 7.031,-5.922 12.781,-14.055 16.578,-23.391 1.078,0.246 2.195,0.383 3.313,0.383 7.977,0 14.406,-6.426 14.406,-14.344 -0.001,-7.33 -5.477,-13.33 -12.54,-14.236 z" /><path
   style="fill:none;stroke:#010202;stroke-width:3.54559994;stroke-linecap:round;stroke-linejoin:round"
   inkscape:connector-curvature="0"
   id="path11"
   d="m -1.6040059,-35.806002 c -0.383,-32.762 8.672,-54.176 18.1209999,-70.319998 10.977,-18.785 36.793,-47.289 92.800996,-34.949 62.742,13.828 56.219,109.382998 -16.765996,86.972998" /><path
   style="fill:#e8423f"
   inkscape:connector-curvature="0"
   id="path13"
   d="m -45.011006,3.7449982 c -0.336,2.984 -23.059,206.2700018 -24.863,222.5040018 7.047,-12.734 43.215,-78.094 43.215,-78.094 0,0 22.6480001,90.125 25.66400014,102.141 C 2.0049941,238.279 24.418994,148.155 24.418994,148.155 c 0,0 36.414,65.438 43.477,78.125 -1.821,-16.187 -24.782,-219.5430018 -25.125,-222.5270018 h -87.781 l -0.001,-0.008 0,0 z" /><path
   style="fill:#010202"
   inkscape:connector-curvature="0"
   id="path15"
   d="m 44.340994,1.9639982 h -90.953 l -26.016,232.9180018 1.711,-3.117 2.746,-4.977 40.887,-73.852 24.4490001,97.359 0.969,3.867 0.855,3.445 0.84800004,-3.445 0.977,-3.883 24.21499986,-97.344 41.117,73.883 2.766,4.945 1.719,3.117 -26.29,-232.9160018 z m -87.77,3.551 h 84.605 l 23.969,212.1720018 -36.988,-66.477 -4.395,-7.852 -2.168,8.734 -22.6049999,90.877 -22.8160001,-90.892 -2.199,-8.719 -4.363,7.867 -36.734,66.398 23.694,-212.1080018 z" /><line
   style="fill:none;stroke:#010202;stroke-width:3.54559994"
   id="line17"
   y2="248.81"
   x2="-0.69000584"
   y1="3.1039979"
   x1="-0.69000584" /><rect
   style="fill:#e8423f"
   id="rect19"
   height="41.992001"
   width="139.105"
   y="-37.493004"
   x="-68.749008" /><rect
   style="fill:none;stroke:#010202;stroke-width:3.54559994"
   id="rect21"
   height="41.992001"
   width="139.09"
   y="-37.493004"
   x="-68.733009" /><rect
   style="fill:#e8423f"
   id="rect23"
   height="17.656"
   width="173.11301"
   y="-25.317003"
   x="-85.726013" /><rect
   x="-85.726013"
   y="-25.302002"
   width="173.11301"
   height="17.641001"
   id="rect27"
   style="fill:none;stroke:#010202;stroke-width:3.54559994" />
</svg>