<?xml version="1.0" encoding="UTF-8" standalone="no"?>
<!-- Generator: Adobe Illustrator 16.0.2, SVG Export Plug-In . SVG Version: 6.00 Build 0)  -->

<svg
   xmlns:dc="http://purl.org/dc/elements/1.1/"
   xmlns:cc="http://creativecommons.org/ns#"
   xmlns:rdf="http://www.w3.org/1999/02/22-rdf-syntax-ns#"
   xmlns:svg="http://www.w3.org/2000/svg"
   xmlns="http://www.w3.org/2000/svg"
   xmlns:sodipodi="http://sodipodi.sourceforge.net/DTD/sodipodi-0.dtd"
   xmlns:inkscape="http://www.inkscape.org/namespaces/inkscape"
   version="1.1"
   id="Ebene_1"
   x="0px"
   y="0px"
   width="469.77301"
   height="471.36801"
   viewBox="-205.975 -206.297 469.77302 471.36802"
   enable-background="new -205.975 -206.297 473.326 474.912"
   xml:space="preserve"
   inkscape:version="0.48.4 r9939"
   sodipodi:docname="Flag_of_Canton_of_Sankt_Gallen.svg"><metadata
   id="metadata75"><rdf:RDF><cc:Work
       rdf:about=""><dc:format>image/svg+xml</dc:format><dc:type
         rdf:resource="http://purl.org/dc/dcmitype/StillImage" /></cc:Work></rdf:RDF></metadata><defs
   id="defs73">
	
	
	
	
	
	
	
	
	
	
		
	
	
		
	
	
	
	
	
	
	
	
	
	
	
	
	
	
	
	
	
	
		
	
	

		
	</defs><sodipodi:namedview
   pagecolor="#ffffff"
   bordercolor="#666666"
   borderopacity="1"
   objecttolerance="10"
   gridtolerance="10"
   guidetolerance="10"
   inkscape:pageopacity="0"
   inkscape:pageshadow="2"
   inkscape:window-width="1366"
   inkscape:window-height="706"
   id="namedview71"
   showgrid="false"
   fit-margin-top="0"
   fit-margin-left="0"
   fit-margin-right="0"
   fit-margin-bottom="0"
   inkscape:zoom="0.99386836"
   inkscape:cx="234.887"
   inkscape:cy="235.68"
   inkscape:window-x="-8"
   inkscape:window-y="-8"
   inkscape:window-maximized="1"
   inkscape:current-layer="Ebene_1" />
<g
   id="g3086"><rect
     x="-205.97501"
     y="-206.297"
     width="469.77301"
     height="471.36801"
     id="rect5"
     style="fill:#16a74e" /><line
     x1="42.767002"
     y1="-161.90199"
     x2="42.517002"
     y2="-141.22299"
     id="line11"
     style="fill:none" /><line
     x1="12.552005"
     y1="-168.312"
     x2="12.552005"
     y2="-139.06999"
     id="line13"
     style="fill:none" /><path
     d="m 37.923004,246.44501 c 0,5.836 -4.594,10.625 -10.27,10.625 -5.652,0 -10.262,-4.789 -10.262,-10.625 v -433.911 c 0,-5.863 4.609,-10.613 10.262,-10.613 5.676,0 10.27,4.75 10.27,10.613 v 433.911 z"
     id="path15"
     inkscape:connector-curvature="0"
     style="fill:#ffffff" /><path
     stroke-miterlimit="10"
     d="m 37.923004,246.44501 c 0,5.836 -4.594,10.625 -10.27,10.625 -5.652,0 -10.262,-4.789 -10.262,-10.625 v -433.911 c 0,-5.863 4.609,-10.613 10.262,-10.613 5.676,0 10.27,4.75 10.27,10.613 v 433.911 z"
     id="path17"
     inkscape:connector-curvature="0"
     style="fill:none;stroke:#010202;stroke-width:3.55200005;stroke-miterlimit:10" /><path
     d="m -29.056996,-199.23799 c 8.93,17.191 34.2580004,29.543 41.602,30.797 7.344,1.258 30.129,6.465 30.129,6.465 l 11.656,9.762 -11.876,11.038 c 0,0 -26.016,2.137 -29.75,2.137 -3.6089996,1.086 -23.754,5.633 -41.281,27.344 -2.52,-3.582 -13.625,-14.215 -13.625,-45.488 0,-25.168 11.442,-39.864 13.145,-42.055"
     id="path19"
     inkscape:connector-curvature="0"
     style="fill:#ffffff" /><path
     stroke-miterlimit="10"
     d="m -29.056996,-199.23799 c 8.93,17.191 34.2580004,29.543 41.602,30.797 7.344,1.258 30.129,6.465 30.129,6.465 l 11.656,9.762 -11.876,11.038 c 0,0 -26.016,2.137 -29.75,2.137 -3.6089996,1.086 -23.754,5.633 -41.281,27.344 -2.52,-3.582 -13.625,-14.215 -13.625,-45.488 0,-25.168 11.442,-39.864 13.145,-42.055 z"
     id="path21"
     inkscape:connector-curvature="0"
     style="fill:none;stroke:#010202;stroke-width:3.55200005;stroke-miterlimit:10" /><line
     x1="42.767002"
     y1="-161.90199"
     x2="42.517002"
     y2="-141.22299"
     id="line23"
     style="fill:none" /><line
     stroke-miterlimit="10"
     x1="42.767002"
     y1="-161.90199"
     x2="42.517002"
     y2="-141.22299"
     id="line25"
     style="fill:none;stroke:#010202;stroke-width:3.55200005;stroke-miterlimit:10" /><line
     x1="12.552005"
     y1="-168.312"
     x2="12.552005"
     y2="-139.06999"
     id="line27"
     style="fill:none" /><line
     stroke-miterlimit="10"
     x1="12.552005"
     y1="-168.312"
     x2="12.552005"
     y2="-139.06999"
     id="line29"
     style="fill:none;stroke:#010202;stroke-width:3.55200005;stroke-miterlimit:10" /><path
     d="m 40.814004,201.58601 c 0,5.766 -5.938,10.438 -13.199,10.438 -7.261,0 -13.16,-4.672 -13.16,-10.438 V -96.046993 c 0,-5.784997 5.891,-10.448997 13.16,-10.448997 7.277,0 13.199,4.664 13.199,10.448997 V 201.58601 z"
     id="path31"
     inkscape:connector-curvature="0"
     style="fill:#ffffff" /><path
     stroke-miterlimit="10"
     d="m 40.814004,201.58601 c 0,5.766 -5.938,10.438 -13.199,10.438 -7.261,0 -13.16,-4.672 -13.16,-10.438 V -96.046993 c 0,-5.784997 5.891,-10.448997 13.16,-10.448997 7.277,0 13.199,4.664 13.199,10.448997 V 201.58601 z"
     id="path33"
     inkscape:connector-curvature="0"
     style="fill:none;stroke:#010202;stroke-width:2.78399992;stroke-miterlimit:10" /><path
     d="m -10.377996,201.58601 c 0,5.766 -4.559,10.438 -10.23,10.438 -5.648,0 -10.215,-4.672 -10.215,-10.438 V -96.046993 c 0,-5.784997 4.574,-10.448997 10.215,-10.448997 5.672,0 10.23,4.664 10.23,10.448997 V 201.58601 z"
     id="path35"
     inkscape:connector-curvature="0"
     style="fill:#ffffff" /><path
     stroke-miterlimit="10"
     d="m -10.377996,201.58601 c 0,5.766 -4.559,10.438 -10.23,10.438 -5.648,0 -10.215,-4.672 -10.215,-10.438 V -96.046993 c 0,-5.784997 4.574,-10.448997 10.215,-10.448997 5.672,0 10.23,4.664 10.23,10.448997 V 201.58601 z"
     id="path37"
     inkscape:connector-curvature="0"
     style="fill:none;stroke:#010202;stroke-width:3.55200005;stroke-miterlimit:10" /><path
     d="m 85.986004,201.58601 c 0,5.766 -4.563,10.438 -10.203,10.438 -5.64,0 -10.188,-4.672 -10.188,-10.438 V -96.046993 c 0,-5.784997 4.547,-10.448997 10.188,-10.448997 5.641,0 10.203,4.664 10.203,10.448997 V 201.58601 z"
     id="path39"
     inkscape:connector-curvature="0"
     style="fill:#ffffff" /><path
     stroke-miterlimit="10"
     d="m 85.986004,201.58601 c 0,5.766 -4.563,10.438 -10.203,10.438 -5.64,0 -10.188,-4.672 -10.188,-10.438 V -96.046993 c 0,-5.784997 4.547,-10.448997 10.188,-10.448997 5.641,0 10.203,4.664 10.203,10.448997 V 201.58601 z"
     id="path41"
     inkscape:connector-curvature="0"
     style="fill:none;stroke:#010202;stroke-width:3.55200005;stroke-miterlimit:10" /><path
     d="m 65.595004,201.58601 c 0,5.766 -5.625,10.438 -12.563,10.438 -6.875,0 -12.516,-4.672 -12.516,-10.438 V -96.046993 c 0,-5.784997 5.641,-10.448997 12.516,-10.448997 6.938,0 12.563,4.664 12.563,10.448997 V 201.58601 z"
     id="path43"
     inkscape:connector-curvature="0"
     style="fill:#ffffff" /><path
     stroke-miterlimit="10"
     d="m 65.595004,201.58601 c 0,5.766 -5.625,10.438 -12.563,10.438 -6.875,0 -12.516,-4.672 -12.516,-10.438 V -96.046993 c 0,-5.784997 5.641,-10.448997 12.516,-10.448997 6.938,0 12.563,4.664 12.563,10.448997 V 201.58601 z"
     id="path45"
     inkscape:connector-curvature="0"
     style="fill:none;stroke:#010202;stroke-width:3.55200005;stroke-miterlimit:10" /><path
     d="m 14.704004,201.58601 c 0,5.766 -5.6559996,10.438 -12.6409996,10.438 -6.969,0 -12.6250004,-4.672 -12.6250004,-10.438 V -96.046993 c 0,-5.784997 5.6560004,-10.448997 12.6250004,-10.448997 6.984,0 12.6409996,4.664 12.6409996,10.448997 V 201.58601 z"
     id="path47"
     inkscape:connector-curvature="0"
     style="fill:#ffffff" /><path
     stroke-miterlimit="10"
     d="m 14.704004,201.58601 c 0,5.766 -5.6559996,10.438 -12.6409996,10.438 -6.969,0 -12.6250004,-4.672 -12.6250004,-10.438 V -96.046993 c 0,-5.784997 5.6560004,-10.448997 12.6250004,-10.448997 6.984,0 12.6409996,4.664 12.6409996,10.448997 V 201.58601 z"
     id="path49"
     inkscape:connector-curvature="0"
     style="fill:none;stroke:#010202;stroke-width:3.55200005;stroke-miterlimit:10" /><rect
     x="-36.791996"
     y="-81.464989"
     width="128.918"
     height="22.952999"
     id="rect51"
     style="fill:#4ab05f" /><rect
     x="-36.791996"
     y="162.47701"
     width="128.918"
     height="22.952999"
     id="rect53"
     style="fill:#16a74e" /><rect
     x="-36.791996"
     y="162.492"
     width="128.918"
     height="22.938"
     id="rect55"
     style="fill:none;stroke:#010202;stroke-width:3.55200005" /><polygon
     transform="translate(-1.7759956,-1.767993)"
     points="93.902,2.354 -34.984,154.542 -34.984,111.495 93.902,-40.666 "
     id="polygon57"
     style="fill:#16a74e" /><polygon
     transform="translate(-1.7759956,-1.767993)"
     points="93.902,2.354 -34.984,154.542 -34.984,111.495 93.902,-40.666 "
     id="polygon59"
     style="fill:none;stroke:#010202;stroke-width:3.55200005" /><rect
     x="-36.791996"
     y="-81.464989"
     width="128.918"
     height="22.952999"
     id="rect61"
     style="fill:#16a74e" /><rect
     x="-36.791996"
     y="-81.464989"
     width="128.918"
     height="22.952999"
     id="rect63"
     style="fill:none;stroke:#010202;stroke-width:3.55200005" /><rect
     x="-36.791996"
     y="162.492"
     stroke-miterlimit="10"
     width="128.918"
     height="22.938"
     id="rect65"
     style="fill:none;stroke:#010202;stroke-width:2.78399992;stroke-miterlimit:10" /><polygon
     transform="translate(-1.7759956,-1.767993)"
     points="-34.984,2.354 93.902,154.542 93.902,111.495 -34.984,-40.666 "
     id="polygon67"
     style="fill:#16a74e" /><polygon
     transform="translate(-1.7759956,-1.767993)"
     points="-34.984,2.354 93.902,154.542 93.902,111.495 -34.984,-40.666 "
     id="polygon69"
     style="fill:none;stroke:#010202;stroke-width:3.55200005" /></g>
</svg>